PathFileType	4	(X/Y/Z)	C:/Users/beibeiliu/ov580/test_trc\sequence.41_training_dense_left.trc
DataRate	CameraRate	NumFrames	NumMarkers	Units	OrigDataRate	OrigDataStartFrame	OrigNumFrames
120	120	11	19	mm	120	1	85
Frame#	Time	ThumbCMC			ThumbMCP			ThumbIP			ThumbTip			IndexMCP			IndexPIP			IndexTip			MiddleMCP			MiddlePIP			MiddleTip			RingMCP			RingPIP			RingTip			PinkyMCP			PinkyPIP			PinkyTip			BackHand1			BackHand2			BackHand3	
		X0	Y0	Z0	X1	Y1	Z1	X2	Y2	Z2	X3	Y3	Z3	X4	Y4	Z4	X5	Y5	Z5	X6	Y6	Z6	X7	Y7	Z7	X8	Y8	Z8	X9	Y9	Z9	X10	Y10	Z10	X11	Y11	Z11	X12	Y12	Z12	X13	Y13	Z13	X14	Y14	Z14	X15	Y15	Z15	X16	Y16	Z16	X17	Y17	Z17	X18	Y18	Z18	
0	0	-149.382	21.75	59.7448	-135.513	12.0926	37.6398	-125.067	9.98085	15.6157	-119.525	4.74093	-6.88005	-164.987	18.6033	-7.70806	-158.86	8.44317	-29.2996	-150.64	-11.5279	-50.0589	-183.654	11.0454	-13.1415	-183.431	0.557111	-37.1717	-180.714	-17.4847	-57.7551	-199.037	3.03197	-7.12734	-200.231	-4.0471	-25.6272	-198.864	-15.8734	-45.0123	-216.508	-8.75229	8.97502	-218.182	-14.6982	-5.57287	-218.22	-20.3476	-26.8343	-201.87	18.8092	35.7142	-202.599	23.9344	66.2583	-179.861	33.1325	47.6868	
1	0.00833333	-151.236	20.4617	58.3522	-135.277	12.9421	37.0269	-130.728	8.38038	16.1423	-121.131	3.42396	-5.73728	-165.527	17.9902	-8.45842	-160.132	5.92258	-32.1992	-152.321	-13.2127	-49.3027	-183.282	10.7012	-15.0569	-183.044	2.17455	-34.5891	-180.987	-17.9235	-57.0689	-203.461	1.5049	-4.17038	-199.374	-5.0268	-25.2677	-198.338	-18.5193	-48.869	-213.925	-7.16166	12.8719	-219.482	-16.2766	-9.76165	-221.79	-20.0487	-24.8461	-203.748	17.1271	40.1754	-202.273	24.9925	63.9847	-178.874	32.272	46.6012	
2	0.0166667	-151.662	18.8818	61.6207	-137.22	11.4332	41.1246	-128.102	7.98058	14.0949	-123.337	2.96207	-0.240437	-160.88	17.5005	-10.7067	-160.721	6.07153	-28.6254	-149.982	-8.86515	-46.1331	-185.917	10.1207	-10.4106	-183.215	0.33193	-33.9844	-178.912	-15.7808	-55.0789	-199.15	2.99311	-1.60752	-199.728	-8.24785	-27.8704	-199.496	-19.9086	-46.2116	-216.304	-7.82738	12.7796	-219.589	-16.5196	-6.31727	-219.653	-21.5706	-23.6117	-205.102	16.6858	40.8887	-201.534	22.7204	65.1715	-180.696	30.6875	50.8718	
3	0.025	-149.562	20.8342	57.6321	-138.693	11.7023	38.7904	-130.139	8.28416	16.8815	-122.453	3.78753	1.60138	-164.034	17.1612	-8.94744	-157.098	6.87567	-31.138	-155.759	-9.05795	-44.0927	-184.171	11.6263	-8.39464	-183.662	-0.34082	-34.8962	-181.395	-17.0146	-54.3423	-199.442	2.9395	-3.4428	-200.943	-7.75436	-25.6745	-198.417	-15.9451	-41.424	-212.194	-6.15446	14.3201	-216.804	-12.9111	-6.20332	-221.655	-19.1803	-23.1188	-203.527	16.3171	38.9593	-205.628	21.5844	65.1521	-180.019	31.7502	48.784	
4	0.0333333	-154.008	18.4979	62.3143	-138.325	11.5614	37.7229	-127.755	8.31725	18.9793	-120.512	3.76744	0.276072	-162.331	20.3598	-5.37995	-159.859	10.3662	-26.3429	-152.361	-4.85021	-44.8007	-183.348	12.6646	-13.6255	-181.487	-0.00210016	-36.1241	-180.7	-13.4315	-53.4025	-203.948	0.781995	-1.28319	-200.634	-6.6378	-26.7115	-200.14	-18.6562	-44.3703	-218.17	-8.50294	13.4472	-216.455	-11.7826	-4.52688	-222.703	-18.6491	-23.0351	-205.606	17.9182	40.2664	-201.37	24.4349	64.318	-181.019	30.6377	49.6953	
5	0.0416667	-154.605	21.5706	55.0172	-139.718	12.7665	36.1329	-130.491	8.42787	13.434	-119.974	2.5775	-2.63116	-161.904	24.702	-7.20029	-162.205	11.2893	-32.3685	-153.617	-0.363783	-47.9051	-187.688	15.2739	-15.1929	-184.161	6.79398	-37.5479	-184.711	-10.746	-57.1046	-205.953	6.05897	-4.75265	-204.951	-2.72833	-29.6346	-203.653	-12.4339	-45.2613	-218.321	-1.51221	9.59119	-218.623	-6.67161	-6.41406	-223.659	-16.1284	-25.3323	-203.287	23.6709	40.2907	-204.223	27.1271	63.1929	-178.551	35.6201	47.9044	
6	0.05	-153.849	24.909	44.0478	-138.869	11.1472	25.6286	-132.563	2.39168	9.4327	-123.566	-4.56838	-8.68178	-166.094	28.0953	-22.7105	-159.781	20.8571	-40.1063	-156.823	6.05867	-59.6558	-190.284	22.9757	-26.9242	-186.344	16.4716	-47.4114	-185.871	-1.75147	-71.5845	-203.892	16.6196	-14.7584	-206.685	7.39646	-39.0274	-203.14	-3.81716	-61.4266	-223.479	5.08066	-2.21868	-224.674	-2.63607	-23.0757	-227.067	-9.6878	-38.9779	-203.361	29.2818	29.0498	-207.445	34.0605	53.2724	-183.089	41.7613	37.9639	
7	0.0583333	-156.669	24.6276	28.0423	-144.034	5.43754	10.174	-132.638	-5.58193	-10.8768	-124.385	-16.5297	-23.8989	-166.699	32.2799	-41.3898	-160.347	22.7112	-64.7056	-159.923	11.2646	-81.2916	-191.117	28.5961	-46.8621	-190.588	21.2914	-68.8839	-186.529	2.31599	-94.1194	-206.905	21.9067	-36.4856	-212.49	11.7077	-60.0411	-209.584	0.787419	-78.1904	-227.754	10.5314	-25.6022	-227.605	3.15452	-40.7157	-229.763	-9.1598	-61.4339	-210.982	33.0332	8.33145	-209.324	38.7474	30.5936	-181.657	45.8754	16.3383	
8	0.0666667	-158.965	16.3279	0.138254	-148.893	-5.50833	-15.8775	-141.481	-17.9935	-31.2906	-132.505	-32.4738	-48.1923	-167.826	27.1589	-63.5097	-163.091	18.5787	-90.5767	-156.215	5.33382	-109.942	-192.154	25.646	-68.0668	-195.71	15.9865	-96.8957	-193.141	-0.557383	-116.819	-211.024	18.383	-62.4594	-214.547	9.35368	-84.6912	-209.171	-4.16473	-105.03	-229.664	8.31956	-45.5744	-230.685	0.0219787	-64.3546	-233.598	-13.5793	-83.3681	-209.323	29.7638	-18.5218	-210.581	35.5373	8.31834	-183.569	38.5657	-7.99322	
9	0.075	-161.696	4.49876	-20.9908	-147.459	-20.653	-35.9309	-140.023	-34.0982	-49.1922	-139.226	-49.0989	-63.9393	-166.978	13.5828	-87.1025	-166.561	7.44891	-108.972	-161.443	-5.36261	-130.875	-191.463	13.963	-92.9099	-192.825	6.07536	-118.18	-194.446	-12.584	-137.689	-208.651	8.07891	-86.0757	-216.58	-0.984481	-105.755	-212.305	-16.7967	-124.772	-226.11	-1.24736	-68.0721	-233.035	-13.6508	-88.2186	-232.157	-26.556	-103.513	-212.136	19.6708	-40.7159	-209.942	26.5891	-18.9069	-182.236	27.903	-30.5794	
10	0.0833333	-159.991	-8.06496	-39.7427	-151.291	-32.9818	-52.131	-144.751	-49.182	-67.3324	-140.632	-65.7248	-82.248	-169.986	0.301745	-104.579	-164.419	-6.4893	-126.22	-162.909	-22.693	-148.019	-193.743	1.89869	-110.48	-194.753	-6.56986	-133.215	-199.429	-27.6676	-152.029	-215.326	-4.87254	-99.0843	-216.704	-13.1869	-122.26	-212.079	-31.2755	-141.26	-227.154	-13.3932	-84.3739	-233.236	-26.0606	-104.136	-231.002	-42.2201	-116.882	-212.191	8.39929	-56.6245	-209.096	14.3855	-36.1012	-184.374	16.7304	-48.5401	
